HIERARCHY
ROOT Hips
{
    OFFSET   0.000000   0.000000   0.000000
    CHANNELS 6 Xposition Yposition Zposition Zrotation Xrotation Yrotation
    JOINT Chest
    {
        OFFSET   0.000000   8.007240   0.000000
        CHANNELS 3 Zrotation Xrotation Yrotation
        JOINT Chest2
        {
            OFFSET   0.000000  22.077100   0.000000
            CHANNELS 3 Zrotation Xrotation Yrotation
            JOINT Neck
            {
                OFFSET   0.000000  23.254800   0.000000
                CHANNELS 3 Zrotation Xrotation Yrotation
                JOINT Head
                {
                    OFFSET   0.000000  14.370000   1.956600
                    CHANNELS 3 Zrotation Xrotation Yrotation
                    End Site
                    {
                        OFFSET   0.000000  19.566000   0.000000
                    }
                }
            }
            JOINT LeftCollar
            {
                OFFSET   3.911900  19.017000  -0.467064
                CHANNELS 3 Zrotation Xrotation Yrotation
                JOINT LeftShoulder
                {
                    OFFSET  10.383700   0.000000   0.000000
                    CHANNELS 3 Zrotation Xrotation Yrotation
                    JOINT LeftElbow
                    {
                        OFFSET  26.662100   0.001476   0.000517
                        CHANNELS 3 Zrotation Xrotation Yrotation
                        JOINT LeftWrist
                        {
                            OFFSET  28.869000  -0.000025  -0.000106
                            CHANNELS 3 Zrotation Xrotation Yrotation
                            JOINT LeftFinger0
                            {
                                OFFSET   2.044660  -2.323460   3.252850
                                CHANNELS 3 Zrotation Xrotation Yrotation
                                JOINT LeftFinger01
                                {
                                    OFFSET   3.088130   0.000000   0.000000
                                    CHANNELS 3 Zrotation Xrotation Yrotation
                                    JOINT LeftFinger02
                                    {
                                        OFFSET   2.639460   0.000000   0.000000
                                        CHANNELS 3 Zrotation Xrotation Yrotation
                                        End Site
                                        {
                                            OFFSET   2.582190   0.000000   0.000000
                                        }
                                    }
                                }
                            }
                            JOINT LeftFinger1
                            {
                                OFFSET   8.364480   0.000000   3.252850
                                CHANNELS 3 Zrotation Xrotation Yrotation
                                JOINT LeftFinger11
                                {
                                    OFFSET   4.646930   0.000000   0.000000
                                    CHANNELS 3 Zrotation Xrotation Yrotation
                                    JOINT LeftFinger12
                                    {
                                        OFFSET   2.323460   0.000000   0.000000
                                        CHANNELS 3 Zrotation Xrotation Yrotation
                                        End Site
                                        {
                                            OFFSET   2.273050   0.000000   0.000000
                                        }
                                    }
                                }
                            }
                            JOINT LeftFinger2
                            {
                                OFFSET   8.364490   0.000015   1.078090
                                CHANNELS 3 Zrotation Xrotation Yrotation
                                JOINT LeftFinger21
                                {
                                    OFFSET   5.111620   0.000000   0.000000
                                    CHANNELS 3 Zrotation Xrotation Yrotation
                                    JOINT LeftFinger22
                                    {
                                        OFFSET   2.788160   0.000016   0.000000
                                        CHANNELS 3 Zrotation Xrotation Yrotation
                                        End Site
                                        {
                                            OFFSET   2.727660   0.000000   0.000000
                                        }
                                    }
                                }
                            }
                            JOINT LeftFinger3
                            {
                                OFFSET   7.899780   0.000017  -1.078090
                                CHANNELS 3 Zrotation Xrotation Yrotation
                                JOINT LeftFinger31
                                {
                                    OFFSET   4.646930   0.000000   0.000000
                                    CHANNELS 3 Zrotation Xrotation Yrotation
                                    JOINT LeftFinger32
                                    {
                                        OFFSET   2.323470   0.000000   0.000000
                                        CHANNELS 3 Zrotation Xrotation Yrotation
                                        End Site
                                        {
                                            OFFSET   2.273050   0.000000   0.000000
                                        }
                                    }
                                }
                            }
                            JOINT LeftFinger4
                            {
                                OFFSET   7.435090   0.000000  -3.252850
                                CHANNELS 3 Zrotation Xrotation Yrotation
                                JOINT LeftFinger41
                                {
                                    OFFSET   3.717550   0.000000   0.000000
                                    CHANNELS 3 Zrotation Xrotation Yrotation
                                    JOINT LeftFinger42
                                    {
                                        OFFSET   1.858770   0.000000   0.000000
                                        CHANNELS 3 Zrotation Xrotation Yrotation
                                        End Site
                                        {
                                            OFFSET   1.818440   0.000000   0.000000
                                        }
                                    }
                                }
                            }
                        }
                    }
                }
            }
            JOINT RightCollar
            {
                OFFSET  -3.911900  19.017000  -0.467063
                CHANNELS 3 Zrotation Xrotation Yrotation
                JOINT RightShoulder
                {
                    OFFSET -10.383700   0.000019   0.000000
                    CHANNELS 3 Zrotation Xrotation Yrotation
                    JOINT RightElbow
                    {
                        OFFSET -26.662100   0.001175   0.000102
                        CHANNELS 3 Zrotation Xrotation Yrotation
                        JOINT RightWrist
                        {
                            OFFSET -28.869000   0.000016  -0.000079
                            CHANNELS 3 Zrotation Xrotation Yrotation
                            JOINT RightFinger0
                            {
                                OFFSET  -2.044660  -2.323490   3.252850
                                CHANNELS 3 Zrotation Xrotation Yrotation
                                JOINT RightFinger01
                                {
                                    OFFSET  -3.088140   0.000000   0.000000
                                    CHANNELS 3 Zrotation Xrotation Yrotation
                                    JOINT RightFinger02
                                    {
                                        OFFSET  -2.639460   0.000000   0.000000
                                        CHANNELS 3 Zrotation Xrotation Yrotation
                                        End Site
                                        {
                                            OFFSET  -2.582190   0.000000   0.000000
                                        }
                                    }
                                }
                            }
                            JOINT RightFinger1
                            {
                                OFFSET  -8.364480   0.000000   3.252850
                                CHANNELS 3 Zrotation Xrotation Yrotation
                                JOINT RightFinger11
                                {
                                    OFFSET  -4.646930   0.000000   0.000000
                                    CHANNELS 3 Zrotation Xrotation Yrotation
                                    JOINT RightFinger12
                                    {
                                        OFFSET  -2.323470   0.000000   0.000000
                                        CHANNELS 3 Zrotation Xrotation Yrotation
                                        End Site
                                        {
                                            OFFSET  -2.273050   0.000000   0.000000
                                        }
                                    }
                                }
                            }
                            JOINT RightFinger2
                            {
                                OFFSET  -8.364480   0.000000   1.078090
                                CHANNELS 3 Zrotation Xrotation Yrotation
                                JOINT RightFinger21
                                {
                                    OFFSET  -5.111620   0.000000   0.000000
                                    CHANNELS 3 Zrotation Xrotation Yrotation
                                    JOINT RightFinger22
                                    {
                                        OFFSET  -2.788160   0.000000   0.000000
                                        CHANNELS 3 Zrotation Xrotation Yrotation
                                        End Site
                                        {
                                            OFFSET  -2.727660   0.000000   0.000000
                                        }
                                    }
                                }
                            }
                            JOINT RightFinger3
                            {
                                OFFSET  -7.899780   0.000000  -1.078090
                                CHANNELS 3 Zrotation Xrotation Yrotation
                                JOINT RightFinger31
                                {
                                    OFFSET  -4.646930   0.000000   0.000000
                                    CHANNELS 3 Zrotation Xrotation Yrotation
                                    JOINT RightFinger32
                                    {
                                        OFFSET  -2.323470   0.000000   0.000000
                                        CHANNELS 3 Zrotation Xrotation Yrotation
                                        End Site
                                        {
                                            OFFSET  -2.273050   0.000000   0.000000
                                        }
                                    }
                                }
                            }
                            JOINT RightFinger4
                            {
                                OFFSET  -7.435090   0.000000  -3.252850
                                CHANNELS 3 Zrotation Xrotation Yrotation
                                JOINT RightFinger41
                                {
                                    OFFSET  -3.717550   0.000000   0.000000
                                    CHANNELS 3 Zrotation Xrotation Yrotation
                                    JOINT RightFinger42
                                    {
                                        OFFSET  -1.858770   0.000000   0.000000
                                        CHANNELS 3 Zrotation Xrotation Yrotation
                                        End Site
                                        {
                                            OFFSET  -1.818440   0.000000   0.000000
                                        }
                                    }
                                }
                            }
                        }
                    }
                }
            }
        }
    }
    JOINT LeftHip
    {
        OFFSET   9.783040   0.000000   0.000000
        CHANNELS 3 Zrotation Xrotation Yrotation
        JOINT LeftKnee
        {
            OFFSET   0.000032 -41.789100  -0.002222
            CHANNELS 3 Zrotation Xrotation Yrotation
            JOINT LeftAnkle
            {
                OFFSET   0.000087 -41.133200  -0.000135
                CHANNELS 3 Zrotation Xrotation Yrotation
                JOINT LeftToe
                {
                    OFFSET   0.000000  -6.358960  14.674500
                    CHANNELS 3 Zrotation Xrotation Yrotation
                    End Site
                    {
                        OFFSET   0.000000   0.000000   3.913200
                    }
                }
            }
        }
    }
    JOINT RightHip
    {
        OFFSET  -9.783040   0.000000   0.000000
        CHANNELS 3 Zrotation Xrotation Yrotation
        JOINT RightKnee
        {
            OFFSET   0.000047 -41.789100  -0.000896
            CHANNELS 3 Zrotation Xrotation Yrotation
            JOINT RightAnkle
            {
                OFFSET  -0.000117 -41.133300  -0.000248
                CHANNELS 3 Zrotation Xrotation Yrotation
                JOINT RightToe
                {
                    OFFSET   0.000000  -6.358970  14.674500
                    CHANNELS 3 Zrotation Xrotation Yrotation
                    End Site
                    {
                        OFFSET   0.000000   0.000000   3.913200
                    }
                }
            }
        }
    }
}
MOTION
Frames: 4
Frame Time:   0.016667
  0.086740  89.581800   1.140300  -1.879200  -6.751580   1.456750   0.405504   2.887410  -0.032328   0.814192   5.774530  -0.085307   0.504218   2.530430  -0.032088   0.832496   5.129900   0.342883  -2.530500   1.282760  -0.334089 -73.973100   9.458120   4.681840  -0.124934   0.922849 -17.015700  12.428800  -4.701280  -4.209690  39.496500  26.900300 -59.422300 -25.629400   0.000784   0.000460  -7.814660   0.001091   0.000113 -29.505500   3.607190  -6.343930 -24.304500   0.005064  -0.000113 -17.013200   0.004008   0.001695 -27.426200  -4.251260   8.148570 -30.406100  -0.018239   0.000309 -20.250400   0.000608   0.000412 -26.299400  -4.632350   9.280850 -26.675600  -0.001846   0.001853 -17.766000  -0.002337   0.002831 -29.277100  -5.110570   9.027930 -44.521200  -0.003322  -0.001252 -29.651100  -0.001131  -0.013325   6.091000   0.624244   2.659760  70.495600   6.942970 -11.174900  -0.465966  -3.473470   9.710790  -9.709190  -7.828010   6.130110 -49.159300  41.320500  83.706600  15.860700  -0.003234  -0.001505   2.930380   0.001742   0.001961  28.876000   8.181690  14.469700  24.477100  -0.006349   0.000802  17.134000  -0.003683   0.001190  27.693600   4.848410   9.129720  32.541900  -0.000778   0.002957  21.672900  -0.000462   0.002805  27.561000   4.710000   8.931810  31.545700   0.001421   0.000076  21.009500   0.001130   0.003111  32.568100   0.767912   1.201990  48.864300   0.003792   0.005995  32.543700   0.005770   0.001951   1.776950   8.429400  -4.759610   0.983782   0.079196   7.880560  -1.108730  -2.403330  -2.833280   0.000000   0.000000  -0.000000   2.773040   7.615640   0.086519  -0.737600   1.976270 -20.317800   0.250390  -3.428010   2.355740  -0.000000   0.000000  -0.000000
  0.085562  89.581900   1.177370  -1.877960  -6.756240   1.467020   0.405451   2.890100  -0.031059   0.813982   5.779910  -0.082778   0.519225   2.521270  -0.032084   0.857259   5.111560   0.327937  -2.532340   1.279490  -0.339034 -73.983500   9.462260   4.681910  -0.125969   0.918386 -17.015700  12.430300  -4.701640  -4.195600  39.490400  26.900400 -59.421400 -25.646900   0.000777   0.000464  -7.823430   0.001080   0.000119 -29.519300   3.597710  -6.322840 -24.314800   0.004991  -0.000111 -17.020300   0.003883   0.001683 -27.430400  -4.251300   8.145880 -30.419000  -0.015366   0.000339 -20.259000   0.000622   0.000439 -26.306900  -4.639380   9.291620 -26.684100  -0.001842   0.001862 -17.771600  -0.002336   0.002842 -29.282500  -5.117820   9.038510 -44.530900  -0.003331  -0.001253 -29.657600  -0.001141  -0.013328   6.108540   0.600763   2.669040  70.474800   6.950830 -11.207200  -0.450799  -3.423260   9.687740  -9.705640  -7.802190   6.125430 -49.191900  41.372300  83.791900  15.883400  -0.003247  -0.001502   2.941710   0.001743   0.001955  28.887300   8.193690  14.480900  24.488000  -0.006346   0.000801  17.141700  -0.003686   0.001180  27.693000   4.848310   9.137560  32.562500  -0.000765   0.002956  21.686700  -0.000459   0.002792  27.560900   4.710090   8.931810  31.548900   0.001425   0.000052  21.011600   0.001135   0.003109  32.563700   0.768838   1.203640  48.857700   0.003798   0.005990  32.539300   0.005758   0.001945   1.776400   8.462250  -4.767230   0.982753   0.068082   7.895630  -1.120150  -2.413740  -2.849400   0.000000   0.000000  -0.000000   2.782420   7.659770   0.042340  -0.742728   1.956200 -20.293900   0.251958  -3.446230   2.361810  -0.000000   0.000000   0.000000
  0.082612  89.581900   1.240710  -1.875560  -6.768810   1.486050   0.405412   2.897090  -0.029001   0.813847   5.793890  -0.078702   0.544950   2.504380  -0.032076   0.899676   5.077470   0.306950  -2.538010   1.273510  -0.348311 -73.999500   9.479950   4.682170  -0.130407   0.902801 -17.015700  12.432500  -4.702040  -4.173750  39.469600  26.900600 -59.420600 -25.677500   0.000759   0.000467  -7.838740   0.001058   0.000135 -29.541700   3.588230  -6.301750 -24.332200   0.004918  -0.000108 -17.032500   0.003757   0.001672 -27.438200  -4.251370   8.140840 -30.448800  -0.009834   0.000369 -20.278900   0.000636   0.000466 -26.322700  -4.650990   9.308060 -26.701500  -0.001833   0.001883 -17.783200  -0.002335   0.002864 -29.293700  -5.129550   9.054740 -44.550200  -0.003352  -0.001257 -29.670400  -0.001151  -0.013336   6.137560   0.561113   2.685400  70.435500   6.975710 -11.258600  -0.423400  -3.340600   9.647420  -9.696420  -7.744280   6.116720 -49.224700  41.423900  83.877500  15.917100  -0.003277  -0.001496   2.958560   0.001744   0.001949  28.897800   8.205500  14.497300  24.499000  -0.006339   0.000792  17.149300  -0.003689   0.001154  27.692400   4.848200   9.145400  32.583100  -0.000731   0.002954  21.700400  -0.000453   0.002755  27.560900   4.710230   8.931820  31.552100   0.001438  -0.000000  21.013700   0.001143   0.003102  32.546800   0.772293   1.209850  48.832500   0.003813   0.005978  32.522500   0.005727   0.001932   1.775350   8.523180  -4.781580   0.980882   0.047265   7.922900  -1.139870  -2.429570  -2.878390   0.000000   0.000000   0.000000   2.801090   7.740610  -0.030005  -0.752903   1.920130 -20.259800   0.254410  -3.477140   2.373730   0.000000   0.000000  -0.000000
  0.078049  89.582000   1.294830  -1.872940  -6.789930   1.505360   0.405599   2.908300  -0.027718   0.814214   5.816340  -0.076227   0.566906   2.486720  -0.032068   0.935829   5.041160   0.297732  -2.548550   1.268250  -0.358030 -74.009400   9.519540   4.680990  -0.140437   0.870260 -17.016200  12.431600  -4.701440  -4.159280  39.440500  26.899300 -59.444100 -25.712200   0.000733   0.000452  -7.856110   0.001039   0.000155 -29.563700   3.593080  -6.305680 -24.350500   0.005321  -0.000105 -17.045300   0.003788   0.001698 -27.447800  -4.251470   8.135070 -30.501300  -0.002155   0.000299 -20.313900   0.000604   0.000409 -26.345900  -4.662300   9.319950 -26.725600  -0.001820   0.001914 -17.799300  -0.002335   0.002896 -29.311400  -5.140210   9.066740 -44.578800  -0.003385  -0.001264 -29.689500  -0.001119  -0.013348   6.160460   0.529064   2.701350  70.394900   7.022690 -11.294600  -0.395220  -3.287580   9.610700  -9.680470  -7.655540   6.109930 -49.215400  41.380800  83.802400  15.926700  -0.003318  -0.001489   2.963340   0.001746   0.001956  28.873900   8.200140  14.503700  24.479500  -0.006334   0.000766  17.135600  -0.003684   0.001115  27.692700   4.846710   9.143740  32.561800  -0.000680   0.002945  21.686200  -0.000443   0.002694  27.554600   4.710280   8.938820  31.514200   0.001462  -0.000073  20.988400   0.001148   0.003090  32.508200   0.780119   1.223960  48.774800   0.003838   0.005959  32.484100   0.005678   0.001913   1.774060   8.587320  -4.796990   0.978912   0.023002   7.950960  -1.156310  -2.438100  -2.907380  -0.000000   0.000000   0.000000   2.823500   7.822130  -0.084907  -0.764847   1.885390 -20.246600   0.252108  -3.503500   2.388740  -0.000000   0.000000   0.000000
